<?xml version="1.0" encoding="utf-8"?>
<!-- Generator: Adobe Illustrator 23.0.3, SVG Export Plug-In . SVG Version: 6.00 Build 0)  -->
<svg version="1.1" id="Layer_1" xmlns="http://www.w3.org/2000/svg" xmlns:xlink="http://www.w3.org/1999/xlink" x="0px" y="0px"
	 viewBox="0 0 275.5 267.6" style="enable-background:new 0 0 275.5 267.6;" xml:space="preserve">
<style type="text/css">
	.st0{display:none;fill:#1DD0A0;}
	.st1{fill:#1DD0A0;}
</style>
<path class="st0" d="M30.3,135.3c0-33.8,0-67.7,0-101.5c0-6.6,4.1-10.7,10.7-10.7c47.7,0,95.4,0,143,0c5.5,0,9.5,3.2,10.3,8.4
	c0.1,0.8,0.1,1.6,0.1,2.4c0,58.7,0,117.4,0,176c0,0.4,0,0.9,0,1.3c0,0.5,0.2,0.7,0.7,0.7c7-0.1,13.9,0.5,20.9-0.3
	c8.3-0.9,14.9-8.4,15.1-16.8c0-0.5,0-1,0-1.6c0-36,0-72,0-108c0-2,0.2-1.7-1.7-1.7c-6,0-11.9,0-17.9,0c-0.9,0-1.3-0.2-1.3-1.2
	c0-11.9,0-23.8,0-35.8c0-0.9,0.2-1.2,1.2-1.2c2.2,0.1,4.3-0.1,6.5,0.1c1.3,0.1,1.5-0.4,1.5-1.5c0-7.5,0-15-0.1-22.6
	c0-1.1,0.3-1.4,1.4-1.4c9.2,0,18.5,0,27.7,0c1.1,0,1.4,0.2,1.4,1.4c-0.1,7.6,0,15.2-0.1,22.8c0,1.1,0.3,1.3,1.4,1.3
	c2.3-0.1,4.6,0,6.8,0c0.7,0,1,0.2,1,1c0,12.1,0,24.2,0,36.2c0,1-0.5,1-1.2,1c-6,0-12,0-18,0c-1.2,0-1.5,0.3-1.5,1.5
	c0,36.3,0,72.6,0,109c0,11.5-7.5,21.3-18.5,24.3c-2.1,0.6-4.2,0.9-6.4,0.9c-5.9,0-11.8,0-17.8,0c-1,0-1.3,0.3-1.3,1.3
	c0,5.7,0,11.4,0,17c0,6-4.2,10.3-10.3,10.3c-47.9,0-95.8,0-143.6,0c-6,0-10.3-4.2-10.3-10.3C30.3,203.4,30.3,169.3,30.3,135.3z
	 M99.7,102c0,8,0,16,0,24c0,0.9,0.2,1.2,1.2,1.2c5.6,0,11.2,0,16.8,0c4.7-0.1,8.6-1.9,11.5-5.7c1.8-2.3,3-4.8,3.8-7.5
	c1.7-5.6,1.9-11.2,1.6-17c-0.2-3.6-0.9-7.1-2.3-10.4c-2.8-6.5-7.7-9.7-14.7-9.8c-5.6,0-11.1,0-16.7,0c-1.1,0-1.3,0.4-1.3,1.4
	C99.7,86.1,99.7,94.1,99.7,102z M140.9,102c0,8,0,16,0,24c0,1,0.3,1.3,1.3,1.3c5.5,0,11,0,16.6,0c1.1,0,2.2-0.1,3.2-0.4
	c5.5-1.2,8.9-4.8,11.1-9.7c1.8-3.9,2.5-8.1,2.8-12.3c0.3-5.8,0.1-11.5-1.8-17.1c-2.6-7.3-7.8-11-15.6-11c-5.3,0-10.6,0-15.8,0
	c-1.7,0-1.7,0-1.7,1.6C140.9,86.3,140.9,94.1,140.9,102z M57.9,102c0,8,0,16,0,24c0,0.9,0.2,1.3,1.2,1.2c2.1-0.1,4.2-0.1,6.2,0
	c1,0,1.3-0.3,1.3-1.3c0-6.8,0-13.5,0-20.3c0-1,0.3-1.3,1.3-1.3c4.4,0,8.8,0,13.2,0c1.6,0,1.6,0,1.6,1.5c0,6.7,0,13.4,0,20
	c0,0.9,0.2,1.3,1.2,1.2c2.1-0.1,4.2-0.1,6.4,0c0.9,0,1.1-0.3,1.1-1.2c0-4.5,0-9,0-13.6c0-11.4,0-22.9,0-34.3c0-1.1-0.3-1.4-1.4-1.4
	c-2,0.1-4,0.1-6,0c-1,0-1.3,0.3-1.3,1.3c0,5.4,0,10.8,0,16.2c0,1-0.2,1.3-1.3,1.3c-4.5-0.1-9-0.1-13.6,0c-1,0-1.3-0.3-1.3-1.3
	c0-5.4,0-10.9,0-16.3c0-0.9-0.2-1.2-1.1-1.2c-2.1,0.1-4.2,0.1-6.2,0c-1.1,0-1.3,0.3-1.3,1.3C57.9,86.1,57.9,94.1,57.9,102z
	 M65.1,221.1c0-3.1-2.6-5.6-5.7-5.6c-3.1,0-5.6,2.6-5.6,5.7c0,3.1,2.6,5.6,5.7,5.6C62.6,226.8,65.1,224.2,65.1,221.1z M86.5,221.1
	c0-3.1-2.6-5.6-5.7-5.6s-5.6,2.6-5.6,5.7c0,3.1,2.6,5.6,5.7,5.6S86.5,224.2,86.5,221.1z M99,226.8c3.1,0,5.6-2.5,5.6-5.6
	s-2.5-5.6-5.6-5.6s-5.6,2.5-5.6,5.6S95.9,226.8,99,226.8z M229.3,35.1c0-2.2,0-4.3,0-6.5c0-0.9-0.3-1.1-1.1-1c-0.7,0-1.1,0.1-1.1,1
	c0,4.3,0,8.6,0,13c0,0.8,0.3,1,1.1,1s1.2-0.1,1.1-1C229.2,39.4,229.3,37.2,229.3,35.1z M235.7,35.1c0-2.2,0-4.3,0-6.5
	c0-0.9-0.3-1.1-1.1-1c-0.7,0-1.1,0.1-1.1,1c0,4.3,0,8.6,0,13c0,0.8,0.3,1,1.1,1s1.2-0.1,1.1-1C235.7,39.4,235.7,37.2,235.7,35.1z
	 M242.2,35.1c0-2.2,0-4.3,0-6.5c0-0.9-0.3-1.1-1.1-1c-0.7,0-1.1,0.1-1.1,1c0,4.3,0,8.6,0,13c0,0.8,0.3,1,1.1,1s1.2-0.1,1.1-1
	C242.2,39.4,242.2,37.2,242.2,35.1z"/>
<path class="st1" d="M135.4,244c-16.8-0.1-34.8-4.8-51.4-14.3c-1.4-0.8-1.4-0.8-0.6-2.1c9.4-15.8,18.8-31.6,28.2-47.4
	c0.5-0.9,0.9-1.1,1.9-0.5c22.4,12.5,51.6,6.4,66.6-17c9.9-15.5,11.1-32,4.5-49.1c-0.3-0.9-0.2-1.2,0.7-1.6c17-7.5,34-15,51-22.6
	c0.8-0.4,1.1-0.2,1.5,0.6c4.7,10.9,7.5,22.2,8.5,34c0.3,3.7,0.5,7.3,0.5,11c-0.4,24.7-7.9,47-23,66.6c-15.1,19.6-34.7,32.6-58.7,39
	C156.1,242.9,147,244,135.4,244z"/>
<path class="st1" d="M28.8,138.1c0-48.5,25.9-88,66.3-105.7c14.4-6.3,29.4-9.1,45.1-8.7c17.8,0.4,34.5,4.9,50.1,13.6
	c1.1,0.6,1.2,1,0.6,2c-9.2,16-18.4,31.9-27.6,47.9c-0.5,0.9-0.9,1-1.8,0.5c-23.2-12.5-52.1-4.9-66.2,17.4
	c-9.3,14.8-10.8,30.5-5.1,47c0.3,0.9,0.2,1.2-0.7,1.6c-17.3,6.8-34.5,13.6-51.7,20.4c-1,0.4-1.3,0.2-1.7-0.8
	C31.2,160.6,28.8,147.4,28.8,138.1z"/>
<path class="st1" d="M96.5,133.7c0-23,18.4-41.6,41.1-41.7c22.7,0,41.2,18.6,41.2,41.6c0,23.1-18.4,41.7-41.2,41.7
	C114.9,175.3,96.5,156.7,96.5,133.7z M157.4,133.7c0-11.2-8.8-20.3-19.7-20.3c-11,0-19.9,9.1-19.9,20.3c0,11.2,8.9,20.3,19.8,20.3
	C148.6,153.9,157.4,144.9,157.4,133.7z"/>
</svg>
